# xmcd
#
# Track frame offsets:
#	150
#	15135
#	33187
#	52485
#	71837
#	96297
#	110887
#	132182
#	150060
#	169792
#	187460
#	201195
#
# Disc length: 2931 seconds
#
# Revision: 0
# Processed by: cddbd v1.5.1PL0 Copyright (c) Steve Scherf et al.
# Submitted via: audiograbber 1.83.01
#
DISCID=a70b710c
DTITLE=Alvydas Lukosevicius - Obuolys
DYEAR=2005
DGENRE=Variety
TTITLE0=Toks ruduo
TTITLE1=Susale lasai
TTITLE2=Pavakarys
TTITLE3=Sako
TTITLE4=Ko nesuradau
TTITLE5=Senos meiles
TTITLE6=Be tavo zodziu
TTITLE7=Neklausinek
TTITLE8=Issaugokim jura
TTITLE9=Tiems, kurie kelyje
TTITLE10=Kauno marios
TTITLE11=Lietuvos rytas
EXTD=
EXTT0=
EXTT1=
EXTT2=
EXTT3=
EXTT4=
EXTT5=
EXTT6=
EXTT7=
EXTT8=
EXTT9=
EXTT10=
EXTT11=
PLAYORDER=
